<svg width="112" height="36" viewBox="0 0 112 36" fill="none" xmlns="http://www.w3.org/2000/svg">
<path d="M85.4054 26.1626C85.3075 26.4308 85.2031 26.6942 85.0889 26.9608C85.2015 26.6942 85.3075 26.434 85.4054 26.1626Z" fill="#263140"/>
<path d="M86.3043 22.4189C86.2717 22.7047 86.2293 22.9873 86.1787 23.2699C86.2277 22.9873 86.2701 22.7047 86.3043 22.4189Z" fill="#263140"/>
<path d="M86.4266 19.7287C86.4266 19.4541 86.4038 19.1811 86.3826 18.9065C86.4054 19.1731 86.4201 19.4461 86.4266 19.7287Z" fill="#263140"/>
<path d="M86.4299 20.701C86.4299 20.4663 86.4299 20.23 86.4299 19.9954C86.4381 20.23 86.4364 20.4647 86.4299 20.701Z" fill="#263140"/>
<path d="M112 9.46335V22.8435C112 29.6733 105.649 35.4415 98.1307 35.4415C93.1182 35.4415 88.6262 32.8631 86.1982 29.1146C87.8854 26.0333 88.636 22.355 88.3194 18.6128C88.0012 14.826 86.611 11.3041 84.3789 8.58368C84.59 7.4672 85.1937 6.45817 86.0853 5.73152C86.977 5.00487 88.1004 4.60642 89.2609 4.60523C90.5771 4.60692 91.8388 5.11935 92.7693 6.03011C93.6998 6.94086 94.2232 8.17556 94.2245 9.46335V22.8435C94.2245 24.1782 95.9296 25.7284 98.1291 25.7284C100.116 25.7284 102.066 24.2995 102.066 22.8435V9.46335C102.067 8.82461 102.196 8.19225 102.447 7.60239C102.697 7.01253 103.064 6.47672 103.526 6.02558C103.988 5.57444 104.537 5.21681 105.14 4.9731C105.744 4.72939 106.39 4.60439 107.043 4.60523C108.358 4.60861 109.618 5.12178 110.547 6.03236C111.476 6.94293 111.999 8.17667 112 9.46335Z" fill="#263140"/>
<path d="M25.7854 11.9539C24.4845 14.4532 23.81 17.2195 23.8176 20.0242C23.8131 23.627 24.9272 27.1462 27.0124 30.1156V30.387C27.0111 31.6751 26.4876 32.91 25.5567 33.8208C24.6258 34.7316 23.3637 35.2439 22.0472 35.2451C20.7311 35.2434 19.4693 34.731 18.5388 33.8203C17.6083 32.9095 17.0849 31.6748 17.0837 30.387V24.8807H9.93202V30.387C9.93115 31.6749 9.40797 32.9099 8.47736 33.8207C7.54674 34.7316 6.28475 35.2439 4.96844 35.2451C3.65227 35.2434 2.39053 34.731 1.46001 33.8203C0.529487 32.9095 0.00617797 31.6748 0.00488281 30.387V9.65975C0.0066097 8.37224 0.530111 7.13794 1.46059 6.22753C2.39106 5.31712 3.65256 4.80491 4.96844 4.80322C6.28447 4.80449 7.54621 5.31657 8.47678 6.22707C9.40735 7.13757 9.93072 8.37211 9.93202 9.65975V15.1661H17.0837V9.65975C17.0854 8.37224 17.6089 7.13794 18.5394 6.22753C19.4698 5.31712 20.7313 4.80491 22.0472 4.80322C23.3634 4.80449 24.6253 5.31651 25.5561 6.22697C26.487 7.13743 27.0107 8.37196 27.0124 9.65975V9.93594C26.5584 10.5814 26.1485 11.2555 25.7854 11.9539Z" fill="#263140"/>
<path d="M69.9336 14.4746C69.7134 14.4746 69.4898 14.4746 69.2646 14.4746C69.5469 14.4746 69.826 14.4746 70.1001 14.4746H69.9336ZM77.8701 34.236C78.0839 34.145 78.2944 34.0508 78.4999 33.9502C78.2944 34.0492 78.0839 34.145 77.8701 34.236ZM85.0887 26.9544C85.2029 26.6942 85.3073 26.4307 85.4052 26.1561C85.3073 26.4339 85.2012 26.6942 85.0887 26.9544ZM86.1786 23.2697C86.2292 22.9871 86.2716 22.7045 86.3042 22.4188C86.27 22.7045 86.2276 22.9871 86.1786 23.2697ZM86.3826 18.8985C86.4038 19.1731 86.4185 19.4461 86.4266 19.7207C86.4201 19.4461 86.4054 19.1731 86.3826 18.8985ZM86.4332 19.9953C86.4332 20.23 86.4332 20.4662 86.4332 20.7009C86.4364 20.4646 86.438 20.23 86.4332 19.9953Z" fill="#263140"/>
<path d="M86.4331 19.9954C86.4053 17.1533 85.6663 14.3611 84.2809 11.8629C83.9251 11.2362 83.5243 10.6349 83.0816 10.0636C82.9005 9.83372 82.7161 9.60862 82.522 9.3899C81.6532 8.40313 80.6398 7.54771 79.5148 6.85148C79.1832 6.64535 78.8412 6.45566 78.4901 6.28313C78.1784 6.12348 77.857 5.98298 77.5323 5.85048C76.0121 5.2478 74.3982 4.90281 72.7596 4.83031C70.955 4.80317 68.9905 4.81914 67.1401 4.78721C65.1022 4.80317 63.0332 4.701 61.0148 4.95963C58.6897 5.51361 57.1086 7.73433 57.2832 10.0684C61.4325 15.8477 61.3509 24.3187 57.2832 29.9878C57.2302 30.8502 57.3985 31.7118 57.7727 32.4943C58.1782 33.3185 58.8132 34.014 59.6047 34.5008C60.3961 34.9877 61.3119 35.2462 62.2467 35.2467H66.2068C71.5652 35.2467 74.202 35.3026 75.5906 34.996C78.2745 34.3649 80.6987 32.9501 82.5416 30.9394C82.7047 30.7669 82.8548 30.5897 83.0033 30.4077C83.1518 30.2257 83.2709 30.0725 83.4014 29.9016C85.5145 27.0551 86.4837 23.4917 86.4331 19.9954ZM76.6071 20.527C76.5092 21.5679 76.2808 22.6264 75.6999 23.5141C75.5173 23.7976 75.2979 24.0568 75.0472 24.2852C74.558 24.7115 73.9777 25.0256 73.3487 25.2047C71.345 25.7763 69.2793 25.5241 67.207 25.5368V14.521C67.894 14.521 68.5858 14.4939 69.2711 14.4843C71.9046 14.4173 75.137 14.5593 76.1535 17.4171C76.5231 18.4118 76.6775 19.4708 76.6071 20.527Z" fill="#263140"/>
<path d="M51.2574 2.46265C51.3043 2.52062 51.3458 2.5826 51.3814 2.64785C51.346 2.58249 51.3045 2.52048 51.2574 2.46265ZM32.7183 2.85858C32.7388 2.7853 32.7667 2.71418 32.8015 2.64625C32.766 2.71388 32.7381 2.78507 32.7183 2.85858Z" fill="#263140"/>
<path d="M57.2767 14.1411C56.1747 11.4352 54.341 9.07377 51.9722 7.3097C51.9852 7.22349 51.5251 3.17638 51.5235 3.08858C51.4908 2.79121 51.347 2.51614 51.1195 2.31632C50.8921 2.11649 50.5972 2.00602 50.2915 2.00615C49.7221 1.86087 46.7655 4.33543 46.2792 4.5781C43.539 3.87245 40.6588 3.87245 37.9185 4.5781C37.4094 4.32106 34.492 1.87364 33.9062 2.00615C33.6006 2.00668 33.3059 2.11735 33.0783 2.31701C32.8508 2.51667 32.7064 2.79135 32.6727 3.08858C32.6727 3.17798 32.2174 7.2187 32.224 7.3081C19.9309 16.349 26.4756 35.9971 42.1021 35.9971C53.4651 36.2158 61.6023 24.1846 57.2767 14.1411ZM42.1021 26.2744C33.7153 26.1291 33.6892 13.9399 42.0695 13.7579C50.4906 13.8745 50.5216 26.1323 42.1021 26.2824V26.2744Z" fill="#263140"/>
</svg>
